HIERARCHY
ROOT Hips
{
	OFFSET 0.000000 0.000000 0.000000
	CHANNELS 6 Xposition Yposition Zposition Zrotation Yrotation Xrotation 
	JOINT LeftUpLeg_virtual
	{
		OFFSET 0.000000 0.000000 0.000000
		CHANNELS 3 Zrotation Yrotation Xrotation
		JOINT LeftUpLeg
		{
			OFFSET 10.205400 -3.823500 0.155100
			CHANNELS 3 Zrotation Yrotation Xrotation
			JOINT LeftLeg
			{
				OFFSET 0.708757 -12.982077 0.567790
				CHANNELS 3 Zrotation Yrotation Xrotation
				JOINT LeftFoot
				{
					OFFSET -0.708756 -10.717838 -2.184338
					CHANNELS 3 Zrotation Yrotation Xrotation
					JOINT LeftToeBase
					{
						OFFSET 0.108149 -7.191104 7.560241
						CHANNELS 3 Zrotation Yrotation Xrotation
						End Site
						{
							OFFSET 0.000000 0.000000 0.000000
						}
					}
				}
			}
		}
	}
	JOINT RightUpLeg_virtual
	{
		OFFSET 0.000000 0.000000 0.000000
		CHANNELS 3 Zrotation Yrotation Xrotation
		JOINT RightUpLeg
		{
			OFFSET -10.205400 -3.823500 0.005500
			CHANNELS 3 Zrotation Yrotation Xrotation
			JOINT RightLeg
			{
				OFFSET -0.708756 -12.982134 0.610632
				CHANNELS 3 Zrotation Yrotation Xrotation
				JOINT RightFoot
				{
					OFFSET 0.708754 -10.717769 -1.945823
					CHANNELS 3 Zrotation Yrotation Xrotation
					JOINT RightToeBase
					{
						OFFSET -0.108140 -7.191069 7.372968
						CHANNELS 3 Zrotation Yrotation Xrotation
						End Site
						{
							OFFSET 0.000000 0.000000 0.000000
						}
					}
				}
			}
		}
	}
	JOINT Spine_virtual
	{
		OFFSET 0.000000 0.000000 0.000000
		CHANNELS 3 Zrotation Yrotation Xrotation
		JOINT Spine
		{
			OFFSET 0.000000 6.876099 0.125700
			CHANNELS 3 Zrotation Yrotation Xrotation
			JOINT Spine1
			{
				OFFSET 0.000000 8.022060 0.146608
				CHANNELS 3 Zrotation Yrotation Xrotation
				JOINT Spine2
				{
					OFFSET 0.000000 9.168068 0.167552
					CHANNELS 3 Zrotation Yrotation Xrotation
					JOINT Neck_virtual
					{
						OFFSET 0.000000 0.000000 0.000000
						CHANNELS 3 Zrotation Yrotation Xrotation
						JOINT Neck
						{
							OFFSET 0.000000 10.314075 0.188496
							CHANNELS 3 Zrotation Yrotation Xrotation
							JOINT Head
							{
								OFFSET 0.000000 7.643700 -2.377400
								CHANNELS 3 Zrotation Yrotation Xrotation
								End Site
								{
									OFFSET 0.000000 0.000000 0.000000
								}
							}
						}
					}
					JOINT LeftShoulder_virtual
					{
						OFFSET 0.000000 0.000000 0.000000
						CHANNELS 3 Zrotation Yrotation Xrotation
						JOINT LeftShoulder
						{
							OFFSET 4.392200 8.824978 0.174984
							CHANNELS 3 Zrotation Yrotation Xrotation
							JOINT LeftArm
							{
								OFFSET 8.771219 -2.981674 -0.026999
								CHANNELS 3 Zrotation Yrotation Xrotation
								JOINT LeftForeArm
								{
									OFFSET 8.512804 0.000000 -0.000000
									CHANNELS 3 Zrotation Yrotation Xrotation
									JOINT LeftHand
									{
										OFFSET 18.484802 0.000000 -0.000000
										CHANNELS 3 Zrotation Yrotation Xrotation
										End Site
										{
											OFFSET 0.000000 0.000000 0.000000
										}
									}
								}
							}
						}
					}
					JOINT RightShoulder_virtual
					{
						OFFSET 0.000000 0.000000 0.000000
						CHANNELS 3 Zrotation Yrotation Xrotation
						JOINT RightShoulder
						{
							OFFSET -4.392200 8.824993 0.141379
							CHANNELS 3 Zrotation Yrotation Xrotation
							JOINT RightArm
							{
								OFFSET -8.771282 -2.981682 -0.094208
								CHANNELS 3 Zrotation Yrotation Xrotation
								JOINT RightForeArm
								{
									OFFSET -8.494598 0.000000 0.000000
									CHANNELS 3 Zrotation Yrotation Xrotation
									JOINT RightHand
									{
										OFFSET -18.483803 0.000000 0.000001
										CHANNELS 3 Zrotation Yrotation Xrotation
										End Site
										{
											OFFSET 0.000000 0.000000 0.000000
										}
									}
								}
							}
						}
					}
				}
			}
		}
	}
}
MOTION
Frames: 5
Frame Time: 0.033333
6.487597 36.449375 11.559862 179.929873 1.140808 179.891583 -1.711205 -2.885845 8.977259 -6.349167 -2.494488 -16.760601 8.784906 7.895180 14.889396 -3.411459 -1.660623 8.395447 0.000000 0.000000 0.000000 2.719860 -1.703025 7.402136 -4.205892 2.728863 -12.449115 -6.831436 2.089167 16.856086 6.876917 3.344166 6.501825 0.000000 0.000000 0.000000 1.210141 0.165286 -2.656028 -4.711380 3.274742 -4.411852 -0.303422 -3.042396 3.369757 0.013960 -0.009467 -0.027682 -0.863445 -1.046131 5.450624 1.029525 -1.892013 5.633076 0.000000 0.000000 0.000000 0.476942 -0.293006 2.799421 5.333345 0.640377 -4.316976 -4.121474 23.323959 -34.500460 -0.953674 -42.367018 -4.661438 0.000000 0.000000 0.000000 -2.758871 0.396763 2.359408 5.824008 -10.214141 -7.475258 19.303274 -27.361781 -34.338954 -1.735499 38.349982 -5.083449 0.000000 0.000000 0.000000 
6.488077 36.457771 11.559505 179.699463 0.957853 179.880258 -1.762586 -2.851760 8.849451 -6.701011 -2.835893 -16.929391 8.387084 8.291276 14.651879 -3.786749 -2.011747 7.859740 0.000000 0.000000 0.000000 2.621877 -1.855792 7.441430 -4.214958 2.258242 -12.389897 -7.144826 1.428326 17.043252 6.403592 2.938707 6.451687 0.000000 0.000000 0.000000 1.071746 0.151910 -2.629428 -4.838720 3.269332 -4.378902 -0.353308 -3.041828 3.405635 0.083087 -0.010032 -0.016474 -0.839704 -1.333122 5.478123 1.119709 -1.802517 5.671544 0.000000 0.000000 0.000000 0.478975 -0.367726 2.845333 5.337156 0.564823 -4.476596 -4.152133 23.291794 -34.545239 -0.916350 -42.344345 -4.717664 0.000000 0.000000 0.000000 -2.704377 0.257624 2.340047 5.833314 -10.329783 -7.523001 19.324933 -27.398121 -34.399189 -1.646964 38.362953 -4.984830 0.000000 0.000000 0.000000 
6.490271 36.457661 11.558852 179.856257 1.091900 179.806028 -1.661625 -2.710549 8.919715 -6.644078 -2.817343 -16.887580 8.402073 8.207523 14.692348 -3.787007 -2.022319 7.770948 0.000000 0.000000 0.000000 2.749377 -1.740501 7.430494 -4.190924 2.293195 -12.345963 -7.171792 1.514734 17.120072 6.384856 2.926158 6.405774 0.000000 0.000000 0.000000 1.185579 0.164933 -2.555935 -4.732991 3.276227 -4.349604 -0.313912 -3.040305 3.411690 0.003498 -0.006423 0.004321 -0.867449 -1.107661 5.488636 1.009930 -1.908397 5.698563 0.000000 0.000000 0.000000 0.478691 -0.330835 2.815552 5.351041 0.593401 -4.470869 -4.134645 23.246260 -34.519844 -0.965635 -42.373097 -4.652978 0.000000 0.000000 0.000000 -2.719587 0.314612 2.326070 5.864555 -10.277716 -7.558750 19.360702 -27.416318 -34.396406 -1.689207 38.378109 -5.011028 0.000000 0.000000 0.000000 
6.491429 36.455730 11.556871 179.799771 1.010499 179.866447 -1.703520 -2.815271 8.877293 -6.631724 -2.857495 -16.929440 8.411743 8.253235 14.704755 -3.788110 -2.034653 7.782857 0.000000 0.000000 0.000000 2.706185 -1.818286 7.427556 -4.209633 2.270972 -12.393653 -7.162237 1.405976 17.092043 6.387178 2.943922 6.428291 0.000000 0.000000 0.000000 1.155895 0.100913 -2.592404 -4.767595 3.229563 -4.361060 -0.337114 -3.084169 3.421107 -0.023375 -0.056544 -0.005970 -0.864755 -1.243562 5.502908 1.061837 -1.848315 5.734150 0.000000 0.000000 0.000000 0.514307 -0.306143 2.782308 5.327034 0.618487 -4.271742 -4.218271 23.304520 -34.601677 -0.903660 -42.335152 -4.735561 0.000000 0.000000 0.000000 -2.691034 0.352268 2.426668 5.852497 -10.215986 -7.596587 19.372184 -27.389398 -34.458765 -1.714112 38.353688 -5.006908 0.000000 0.000000 0.000000 
6.492382 36.454876 11.553606 179.766768 1.021515 179.826846 -1.727831 -2.809935 8.906887 -6.639780 -2.860565 -16.915121 8.398366 8.304305 14.727416 -3.795172 -2.051443 7.753818 0.000000 0.000000 0.000000 2.673117 -1.835045 7.455546 -4.227345 2.305594 -12.357661 -7.144056 1.419057 17.044665 6.379613 2.935071 6.497233 0.000000 0.000000 0.000000 1.136881 0.099818 -2.540720 -4.780593 3.235364 -4.314925 -0.335650 -3.070186 3.442214 -0.012610 -0.038359 0.007420 -0.820691 -1.200950 5.484579 1.062279 -1.836138 5.789946 0.000000 0.000000 0.000000 0.531374 -0.307961 2.751255 5.359284 0.650476 -4.405807 -4.295303 23.369132 -34.650588 -0.940928 -42.370409 -4.700672 0.000000 0.000000 0.000000 -2.659058 0.332360 2.366744 5.850835 -10.183807 -7.621189 19.405910 -27.430333 -34.456358 -1.760675 38.328938 -5.022551 0.000000 0.000000 0.000000 
